<?xml version="1.0" encoding="utf-8"?>
<!-- Generator: Adobe Illustrator 23.0.3, SVG Export Plug-In . SVG Version: 6.00 Build 0)  -->
<svg version="1.1" id="Layer_1" xmlns="http://www.w3.org/2000/svg" xmlns:xlink="http://www.w3.org/1999/xlink" x="0px" y="0px"
	 viewBox="0 0 200 100" style="enable-background:new 0 0 200 100;" xml:space="preserve">
<style type="text/css">
	.st0{fill:#FFFFFF;}
</style>
<g>
	<path class="st0" d="M42.55,56.2c0-4.71,0-9.15,0-13.84c-0.7,0-1.32,0-1.94,0c-9.84,0-19.68-0.03-29.52,0.03
		c-1.33,0.01-2.1-0.42-2.63-1.59c-1.64-3.58-1.69-7.15-0.08-10.76c0.54-1.21,1.31-1.72,2.72-1.71c9.84,0.07,19.68,0.04,29.52,0.04
		c0.63,0,1.26,0,2,0c0-5.22,0-10.22,0-15.39c0.66-0.06,1.22-0.14,1.78-0.15c4.36-0.01,8.71-0.03,13.07,0.02
		c0.83,0.01,1.72,0.19,2.49,0.5c14.05,5.67,28.08,11.38,42.13,17.04c1.12,0.45,1.54,1.03,1.51,2.24c-0.08,3.16-0.03,6.32-0.03,9.53
		c0.42,0.06,0.68,0.14,0.93,0.14c4.14,0.01,8.28-0.01,12.42,0.03c0.9,0.01,1.3-0.23,1.5-1.19c3.74-17.84,18.79-28.72,35.76-29.82
		c4.27-0.28,8.49-0.05,12.64,0.98c7.74,1.93,13.91,6.16,18.3,12.82c6.22,9.43,7.15,20.04,6.78,31.12c-18.58,0-37.04,0-55.72,0
		c0.08,0.81,0.08,1.43,0.21,2.02c2.1,9.75,10.2,15.71,20.44,15.2c6.64-0.33,12.12-3,16.62-7.8c0.62-0.66,1.22-1.34,1.92-2.1
		c4.42,3.34,8.77,6.63,13.26,10.03c-10.03,12.21-22.93,16.4-38.05,14.26c-15.63-2.21-29.46-13.05-32.68-31.43c-4.69,0-9.4,0-14.36,0
		c0,2.16,0.02,4.28-0.01,6.41c-0.02,1.61,0.46,3.58-0.29,4.72c-0.75,1.13-2.75,1.45-4.23,2.06c-12.7,5.15-25.39,10.29-38.11,15.39
		c-0.97,0.39-2.07,0.59-3.11,0.61c-4.19,0.07-8.39,0.04-12.58,0.02c-2.93-0.01-2.61,0.34-2.62-2.54c-0.01-3.66,0-7.31,0-10.97
		c0-0.57,0-1.15,0-1.9c-0.83,0-1.46,0-2.09,0c-9.79,0-19.57-0.04-29.36,0.04c-1.49,0.01-2.26-0.53-2.82-1.8
		c-1.58-3.61-1.57-7.18,0.12-10.75c0.51-1.09,1.22-1.54,2.5-1.53c9.84,0.06,19.68,0.03,29.52,0.03C41.13,56.2,41.77,56.2,42.55,56.2
		z M173.37,42.25c-0.08-4.55-1.29-8.57-4.43-11.82c-4.11-4.26-9.38-5.45-15.04-5.2c-8.92,0.39-14.97,5.38-17.2,14.03
		c-0.25,0.96-0.37,1.94-0.57,2.99C148.66,42.25,160.93,42.25,173.37,42.25z"/>
</g>
</svg>
