<?xml version="1.0" encoding="utf-8"?>
<!-- Generator: Adobe Illustrator 23.0.3, SVG Export Plug-In . SVG Version: 6.00 Build 0)  -->
<svg version="1.1" id="Layer_1" xmlns="http://www.w3.org/2000/svg" xmlns:xlink="http://www.w3.org/1999/xlink" x="0px" y="0px"
	 viewBox="0 0 990.3 727" style="enable-background:new 0 0 990.3 727;" xml:space="preserve">
<style type="text/css">
	.st0{opacity:0.1;fill:#27B5A2;enable-background:new    ;}
	.st1{opacity:0.5;}
	.st2{fill:#6C63FF;}
	.st3{fill:none;stroke:#535461;stroke-width:2;stroke-miterlimit:10;}
	.st4{fill:#684BE2;}
	.st5{opacity:0.1;fill:#8FDBCE;enable-background:new    ;}
	.st6{fill:#8CD0F3;}
	.st7{opacity:0.1;fill:#8CD0F3;enable-background:new    ;}
	.st8{fill:#004437;}
	.st9{fill:#27B5A2;}
	.st10{opacity:0.2;fill:#FFFFFF;enable-background:new    ;}
	.st11{opacity:0.5;fill:#18218A;enable-background:new    ;}
	.st12{opacity:0.5;fill:#27B5A2;enable-background:new    ;}
	.st13{fill:#006B59;}
	.st14{opacity:0.5;fill:#1D8977;enable-background:new    ;}
	.st15{fill:#182A7C;}
	.st16{opacity:0.2;fill:none;stroke:#FFFFFF;stroke-miterlimit:10;enable-background:new    ;}
	.st17{opacity:0.5;fill:#229985;enable-background:new    ;}
	.st18{fill:url(#SVGID_1_);}
	.st19{fill:#FFBDC6;}
	.st20{fill:#A66477;}
	.st21{fill:#7679B4;}
	.st22{opacity:5.000000e-02;enable-background:new    ;}
	.st23{fill:#565388;}
	.st24{opacity:0.1;enable-background:new    ;}
	.st25{fill:#F2F1F2;}
	.st26{fill:#EF4C5B;}
	.st27{opacity:5.000000e-02;}
</style>
<title>by_my_car</title>
<path class="st0" d="M71.6,291.8c20.8,47.1-5.8,101.3-37,142.2c-10.5,13.7-22,28-23.5,45.2c-1.8,21,12.5,40.3,29.4,52.9
	c30.8,23,72.8,30.1,109.4,18.5c31.6-10,58.3-32.7,90.2-41.8c53.4-15.3,110,10.1,155.7,41.6c32.3,22.3,67,49.5,106,44.7
	c27.5-3.4,50.8-22.6,66.6-45.3c7.6-11,14.3-23.2,25.4-30.6c6.6-4.4,14.4-6.7,22.1-8.4c70.9-15.2,146.1,21.8,216.1,2.8
	c47.2-12.8,84.9-50.2,108.3-93.2s34.4-91.5,43.5-139.7c6.5-34.2,11.8-71.1-3-102.5c-15.7-33.3-52.2-53.5-88.8-57.2
	s-73.3,6.7-107.1,21.4c-42.2,18.4-83.5,44.2-129.5,44.3c-31.3,0.1-61.2-12-91.2-21.1c-50.2-15.3-102.2-22.9-154.1-30
	c-49.7-6.7-99.9-13-149.9-9c-35.4,2.8-66.6,16.3-100.9,22.6c-22.4,4.1-44.9,1-66.8,7.9c-27,8.4-54.8,28.1-56.3,58.9
	C34.9,245.3,60.6,266.8,71.6,291.8z"/>
<g class="st1">
	<path class="st2" d="M697.9,183.2c-5,1.4-11.2,5.2-14.2,15.4c-6,20,7.9,33.7,3.3,54.5c-1.2,5.5-3.6,10.7-7,15.3
		c-5.6,7.5-11.6,11.1-17.5,16.4c-7.4,6.8-12.8,15.5-15.4,25.2c-2.8,10.7-3.1,22-0.7,32.8c2.1,9.1,5.7,15.6,8.8,23
		c3.9,9.4,6.9,19.1,9,29c1.2,4.8,1.9,9.7,2,14.7c0.1,6.2-0.9,13-1.8,19.7l-8.5,59.1c-1.1,7.9-2.3,15.9-2.3,23.4
		c-0.1,8.6,1.3,16.1,2.7,23.3c3,15.6,6.2,31.9,13,40.1c6.8,8.2,18.4,5.4,25.5-11.5c6.8-16,6.9-37.4,12.9-54.5
		c9.4-27,28.2-30.6,38.5-56.3c10-24.7,6.9-55,12-83.1c3.6-20.2,11.3-38.6,15.9-58.5c6.6-28.7,5.9-58.5,0.7-80.6
		s-14.7-37.2-25.1-48.7c-4.4-4.9-9.1-9.2-14.7-9.6c-5.9-0.5-11,7-16.8,9.2C711.5,183.9,704.7,181.2,697.9,183.2z"/>
	<path class="st3" d="M729.8,173.6c0,0-10,255.3-51.9,405.8"/>
	<path class="st3" d="M683.4,199.8c0,0,44.8,40.8,36.3,118.6"/>
	<path class="st3" d="M645.8,315.9c0,0,73.6,14.8,68.1,58.8"/>
	<path class="st3" d="M774.9,229.9c0,0-29.8,26.1-56.3,99.9"/>
	<path class="st3" d="M745.8,453.1c0,0-20.3,16-36.6-39.8"/>
	<path class="st3" d="M658.2,485.6c0,0,41.4-5.4,45.3-31.4"/>
</g>
<path class="st4" d="M798.1,11.9c-10.3,1.5-22.6,6.3-27.7,20.9c-9.9,28.8,20.3,50.5,13.3,80.6c-2.1,9-7.2,16.3-12.7,21.7
	c-10.6,10.5-22.8,15-34.2,22.1s-23.4,18.2-28.8,35.4c-5.2,16.5-2.9,34.6,2.4,48.2s13.6,23.7,20.8,34.9c8.9,13.8,16.3,28.4,22.2,43.7
	c2.6,6.7,5,13.8,5.8,21.9c0.9,9.2-0.2,19.1-1.4,28.8l-10.5,86c-1.4,11.5-2.8,23.1-2,34.1c0.9,12.7,4.7,23.8,8.4,34.7
	c8,23.4,16.6,47.7,31.6,60.6c15.1,13,38.8,10.1,51.5-13.8c12.1-22.8,9.9-54.3,20.2-78.8c16.3-38.6,54.7-41.7,73.1-78.4
	c17.7-35.2,7.8-80.1,14.9-121c5.1-29.3,18.9-55.5,26-84.3c10.2-41.5,5.3-85.5-8.2-118.6S928.1,34.1,905.2,16
	c-9.7-7.7-20-14.6-31.5-15.9c-12.2-1.4-22,8.9-33.8,11.5C826.3,14.7,812,9.9,798.1,11.9z"/>
<path class="st3" d="M862.9,1.6c0,0,9.7,374.8-59.4,591.5"/>
<path class="st3" d="M770,34.7c0,0,97.6,65.4,89.3,178.9"/>
<path class="st3" d="M705.9,201.2c0,0,154.1,30.5,148,94.7"/>
<path class="st3" d="M963,89.9c0,0-58.6,34.9-104.7,140.5"/>
<path class="st3" d="M929.3,415.1c0,0-40.2,21.1-80.5-63"/>
<path class="st3" d="M751.6,452.7c0,0,85.1-3.1,90-40.8"/>
<ellipse class="st5" cx="488.2" cy="584.7" rx="427.7" ry="41.1"/>
<path class="st6" d="M315,450.9c0,0,117.2-74.9,198.3-74.9c0,0,97.6-15.2,203.7,10.5c106.2,25.7,145.4,59,174.8,49.2l-123.6,3.6
	L315,450.9z"/>
<path class="st7" d="M315,450.9c0,0,117.2-74.9,198.3-74.9c0,0,97.6-15.2,203.7,10.5c106.2,25.7,145.4,59,174.8,49.2l-123.6,3.6
	L315,450.9z"/>
<polygon class="st8" points="867.7,565.6 152.6,565.6 172.3,486.8 293.9,454.5 867.7,469.6 "/>
<path class="st9" d="M905.3,516.4v25.1c0,0-21.2,15.4-23.2,27.5c0,0-30.4,7.7-39.1,7.7c-0.8,0-1.7,0-2.5,0.1
	c1.4-3.6,2.4-7.4,3.2-11.2c8-39.9-18-78.7-57.9-86.7c-39.9-8-78.7,18-86.7,57.9c-1.9,9.5-1.9,19.3,0,28.8c1,5.2,2.6,10.2,4.7,15
	h-41.2c0,0-0.4,0.1-1,0.4c-2.2,1-7.4,3.6-8.2,7.8H311.8l-7-0.1c1.5-2.5,2.8-5.1,4-7.7c2.2-4.9,3.8-10.1,4.9-15.4
	c8-39.9-17.8-78.8-57.8-86.9c-39.9-8-78.8,17.8-86.9,57.8c-1,4.8-1.5,9.7-1.4,14.6c0,4.9,0.5,9.7,1.4,14.5
	c1.6,8.1,4.6,15.8,8.7,22.9c-4.9-1.2-15.5-4.6-15.5-4.6s-45.4-4.8-56.9-15l1.8-1.2l7.4-5.1l-3.4-13c-0.4-0.5-0.7-1.1-1-1.8
	c-0.9-2.2-1.7-6.2,1.5-11.3c4.8-7.7,2.4-35.2,2.4-35.2s65.6-45.3,194.9-55.5c0,0,3.1,2.4,9.5,2.9c4.3,0.3,10.1-0.2,17.6-2.9
	c0,0,10.6,4.8,56-21.2c0,0,77.2-53.1,178.5-48.2c0,0,104.2-6.3,193,28c38.3,14.8,67.4,22.6,88.1,26.8c19.2,3.8,31.2,4.6,36.7,4.6
	h0.1c1.8,0,2.9,0,3.2,0h0.2c0,0,0,11.5,0.6,25.1v0.1c0.2,4.7,0.5,9.7,0.9,14.5v0.3c1.2,13.5,3.2,25.7,6.6,28.1L905.3,516.4z"/>
<path class="st6" d="M124.4,500.3c0,0,29.1-22.7,65.3-17.8c0,0-32.9,26.1-47.8,24.4l-2.5-2.2l-15,0.8
	C124.4,505.5,122.2,502,124.4,500.3z"/>
<path class="st10" d="M152.7,539.5v13.4c0,0-1,12.8-12.6,13.3l-33,1.6l7.4-5.1l-3.4-13c-0.4-0.5-0.7-1.1-1-1.8
	c3-2.8,10.1-7.4,24.4-8.4L152.7,539.5z"/>
<path class="st10" d="M306.2,483.4l25.3-1c0,0-10.2,8.1-17.5,8.8S306.2,483.4,306.2,483.4z"/>
<path class="st10" d="M359.5,560.2c0,0,229.1-31.8,284.4-21.7c0,0,16.3,1.1,22.4,7.6c6.2,6.5,0,2.3,0,2.3L359.5,560.2z"/>
<path class="st11" d="M487.8,470.9c0,0,2.9-5.4,7.6-5.5l30.5-1.6c0,0-0.5,4.2-5.9,5.8L487.8,470.9z"/>
<path class="st12" d="M664.4,461.7c0,0,2.9-5.4,7.6-5.5l30.5-1.6c0,0-0.5,4.2-5.9,5.8L664.4,461.7z"/>
<path class="st6" d="M560.2,387.3l-23.4,61.4l-84.4,0.1h-21.7h-18.9h-16.4h-18.5c0,0,11.3-8.3,29.5-18.8c6-3.5,12.8-7.2,20.2-11
	c6.8-3.5,14.1-7,21.8-10.3c6-2.6,12.3-5.2,18.8-7.5C496.3,390.4,529.2,383.2,560.2,387.3z"/>
<path class="st6" d="M692.8,432.1c0,0-35.3,5.2-68.9,9.1c-12.9,1.5-25.5,2.8-35.8,3.5l-1.4,0.1c-4,0.3-7.7,0.4-10.9,0.5
	c-5,0.1-8.7-0.1-10.6-0.7l9.7-58.8c0,0,12,0.1,29.8,1l3.9,0.2c3.7,0.2,7.6,0.5,11.6,0.7c5.8,0.4,11.9,0.9,18.2,1.5
	c30.4,2.8,64.9,7.8,86.7,16.8C771.5,425.2,692.8,432.1,692.8,432.1z"/>
<path class="st6" d="M855.4,461.7v15.7c0,0-25.3,0.4-19.9-4.7c3.5-3.4,6.7-7,9.5-11L855.4,461.7z"/>
<path class="st6" d="M893.4,475.8l-20.6,1.6v-18.8c0,0,9.5-13.4,19.1,1.5l0.5,0.9L893.4,475.8z"/>
<circle class="st13" cx="241.4" cy="551.1" r="58.9"/>
<path class="st9" d="M288.6,551.1c0,26.2-21.1,47.4-47.3,47.5c-26.2,0-47.4-21.1-47.5-47.3c0-26.2,21.1-47.4,47.3-47.5
	c22.5,0,41.9,15.7,46.5,37.7C288.3,544.6,288.6,547.8,288.6,551.1z"/>
<ellipse class="st14" cx="241.3" cy="551.1" rx="40.6" ry="40.7"/>
<path class="st9" d="M254.9,505.6v1.7l-13.5,44.7l-10.8-47.2C238.6,503,247,503.3,254.9,505.6L254.9,505.6z"/>
<path class="st9" d="M254.8,596.5c-7.7,2.3-15.9,2.6-23.8,0.8l10.4-45.2L254.8,596.5z"/>
<path class="st9" d="M288.6,551.1c0,4.9-0.8,9.8-2.3,14.5h-0.2l-44.7-13.5l46.3-10.6C288.3,544.6,288.6,547.9,288.6,551.1z"/>
<path class="st9" d="M241.4,552.1l-44.7,13.5h-0.4c-2.5-7.8-2.9-16.1-1.3-24.2L241.4,552.1z"/>
<circle class="st15" cx="241.3" cy="551.1" r="5.2"/>
<circle class="st13" cx="771.1" cy="551.1" r="58.9"/>
<path class="st9" d="M818.3,551.1c0,26.2-21.1,47.4-47.3,47.5c-26.2,0-47.4-21.1-47.5-47.3c0-26.2,21.1-47.4,47.3-47.5
	c22.5,0,41.9,15.7,46.5,37.7C817.9,544.6,818.3,547.8,818.3,551.1z"/>
<ellipse class="st14" cx="771" cy="551.1" rx="40.6" ry="40.7"/>
<path class="st9" d="M784.6,505.6v1.7l-13.5,44.7l-10.8-47.2C768.3,503,776.7,503.3,784.6,505.6z"/>
<path class="st9" d="M784.5,596.5c-7.7,2.3-15.9,2.6-23.8,0.8l10.4-45.2L784.5,596.5z"/>
<path class="st9" d="M818.3,551.1c0,4.9-0.8,9.8-2.3,14.5h-0.2l-44.7-13.5l46.3-10.6C818,544.6,818.3,547.8,818.3,551.1z"/>
<path class="st9" d="M771.1,552.1l-44.7,13.5H726c-2.5-7.8-2.9-16.1-1.3-24.2L771.1,552.1z"/>
<circle class="st15" cx="771" cy="551.1" r="5.2"/>
<path class="st10" d="M426.4,419l-14.8,29.8h-16.4l10.9-18.8C412.3,426.5,419.1,422.8,426.4,419z"/>
<path class="st10" d="M467,401.1l-14.7,47.7h-21.7l17.7-40.1C454.3,406,460.6,403.5,467,401.1z"/>
<path class="st10" d="M620.2,387.8l-32.1,56.9l-1.4,0.1c-4,0.3-7.7,0.4-10.9,0.5l28.9-58.4l3.9,0.2
	C612.2,387.3,616.1,387.5,620.2,387.8z"/>
<polygon class="st16" points="377.3,448.6 359,574.8 512,571.5 537.2,449.2 "/>
<path class="st17" d="M661.6,581c-2.2,1-7.4,3.6-8.2,7.8H311.8l-7-0.1c1.5-2.5,2.8-5.1,4-7.7L661.6,581z"/>
<path class="st4" d="M366.3,672.1c2.3-2.2,4.5-4.7,5.2-7.8s-0.6-6.8-3.6-8c-3.3-1.3-6.9,1-9.6,3.4s-5.8,5-9.3,4.5
	c3.7-3.4,5.4-8.4,4.4-13.3c-0.2-1-0.6-1.9-1.2-2.7c-1.9-2-5.2-1.1-7.4,0.4c-7,5-9,14.5-9,23.2c-0.7-3.1-0.1-6.3-0.1-9.5
	s-0.9-6.7-3.6-8.4c-1.7-0.9-3.6-1.3-5.5-1.3c-3.2-0.1-6.7,0.2-8.9,2.5c-2.7,2.9-2,7.7,0.4,10.9s5.9,5.2,9.2,7.3
	c2.6,1.6,4.9,3.7,6.5,6.2c0.2,0.4,0.4,0.7,0.5,1.1H354C358.5,678.4,362.6,675.5,366.3,672.1z"/>
<path class="st4" d="M781.4,689c1.8-1.5,3.2-3.5,3.8-5.8c0.5-2.3-0.5-5-2.7-5.9c-2.5-0.9-5.1,0.8-7.1,2.5s-4.3,3.7-6.9,3.3
	c2.7-2.5,4-6.2,3.2-9.8c-0.1-0.7-0.4-1.4-0.9-2c-1.4-1.5-3.8-0.8-5.5,0.3c-5.2,3.7-6.7,10.7-6.7,17.1c-0.5-2.3-0.1-4.7-0.1-7
	c0-2.3-0.7-5-2.6-6.2c-1.2-0.7-2.6-1-4-1c-2.3-0.1-4.9,0.2-6.5,1.9c-2,2.1-1.5,5.7,0.3,8s4.3,3.8,6.8,5.4c1.9,1.2,3.6,2.7,4.8,4.6
	c0.1,0.3,0.3,0.5,0.4,0.8h14.7C775.6,693.6,778.6,691.5,781.4,689z"/>
<path class="st4" d="M846.4,720.8c1.8-1.5,3.2-3.5,3.8-5.8c0.5-2.3-0.5-5-2.7-5.9c-2.5-0.9-5.1,0.8-7.1,2.5s-4.3,3.7-6.9,3.3
	c2.7-2.5,4-6.2,3.2-9.8c-0.1-0.7-0.4-1.4-0.9-2c-1.4-1.5-3.8-0.8-5.5,0.3c-5.2,3.7-6.7,10.7-6.7,17.1c-0.5-2.3-0.1-4.7-0.1-7
	c0-2.3-0.7-5-2.6-6.2c-1.2-0.7-2.6-1-4-1c-2.3-0.1-4.9,0.2-6.5,1.9c-2,2.1-1.5,5.7,0.3,8s4.3,3.8,6.8,5.4c1.9,1.2,3.6,2.7,4.8,4.6
	c0.1,0.3,0.3,0.5,0.4,0.8h14.7C840.6,725.4,843.6,723.3,846.4,720.8z"/>
<linearGradient id="SVGID_1_" gradientUnits="userSpaceOnUse" x1="654.1841" y1="-43.004" x2="654.1841" y2="214.2255" gradientTransform="matrix(1 0 0 -1 -104.84 641.41)">
	<stop  offset="0" style="stop-color:#808080;stop-opacity:0.25"/>
	<stop  offset="0.54" style="stop-color:#808080;stop-opacity:0.12"/>
	<stop  offset="1" style="stop-color:#808080;stop-opacity:0.1"/>
</linearGradient>
<path class="st18" d="M658.4,653.9c0,0-3.5,1.9-5.1-8.9c-1-7-3.9-21.4-5.8-30.8l-0.2-1.2c0.5-0.2,1.1-0.4,1.6-0.6
	c0,0-11.1-43-8.6-52.5c2.5-9.5,0-26.6,0-26.6l-6.7-22.5c0,0-16.5-5.7-22.9-7.3S586.6,491,586.6,491c0.3,0.4,0.6,0.7,0.9,1.1
	l-0.7-0.4c-1.3-1.2-2.5-2.6-3.5-4c3.5-3.8,5.8-8.6,6.6-13.7c4.8-9.2,4.3-20.2-1.4-28.9c1.1-1.4,1.9-2.9,2.4-4.5
	c0.2-0.8,0.3-1.5,0.3-2.3c0.2-2.6-1.2-5-3.5-6.1c-1.5-0.6-3.3-0.6-4.8,0c-1.4,0.6-2.5,1.8-4.1,2.2c-2.6,0.5-4.8-1.5-6.8-3.1
	c-3.1-2.3-6.9-3.7-10.8-4c-1.7-0.2-3.4,0-5,0.7c-1.5,0.9-2.9,1.9-4.1,3.1c-4.6,3.7-11,4.7-16.8,6.7c-1.1,0.4-2.3,1-2.5,2
	c0,0.2,0,0.4,0,0.6l0,0c0,0.3,0,0.5,0.1,0.8c-10.7,1.8-21.2,9.9-21.2,9.9l-1.8,1.6c-1.2-0.6-2.6-0.5-3.7,0.3l-3.5,2.8
	c-1.3,1-1.7,2.9-0.8,4.3l-25.9,24l-0.6,0.5v-0.1c0,0-20,15.2-20,25.9c0,7.8,6,12.6,9.3,14.6c-2.9,2.8-5.2,6.2-6.5,10l0,0v0.1v0.1
	v0.1v0.1v0.1v0.1v0.1v0.1v0.1v0.1v0.1v0.1v0.1v0.1v0.1v0.1v0.1v0.4v0.1v0.2l0,0v0.2v0.2l-0.1,0.4v0.2l0,0.3v0.1v0.3v0.2l-0.1,0.4
	l0,0l-0.1,0.5v0.1l-0.1,0.4v0.2l-0.1,0.5v0.1l-0.1,0.5v0.2l-0.2,1.3l0,0l-0.1,0.7v0.1l-0.1,0.7v0.1l-0.1,0.7v0.1l-0.1,0.8v0.2
	l-0.1,0.8v0.2l-0.1,0.8v0.1l-0.2,0.9v0.2l-0.3,1.9l0,0l-0.2,1v0.2l-0.2,1v0.1l-0.4,2v0.2l-0.2,1v0.1l-0.4,2.1v0.1l-0.2,1.1v0.1
	l-0.4,2.2v0.1l-0.2,1.1v0.1l-0.4,2.2v0.1l-0.2,1.1v0.1l-0.4,2.3v0.1l-0.2,1.1v0.1l-1.8,2.3v0.1l-0.2,1.1v0.1l-0.5,2.2v0.1l-0.2,1.1
	v0.1l-0.4,2.1v0.1l-0.2,1v0.1l-0.4,2v0.1l-0.2,1v0.1l-0.4,1.9v0l-0.2,0.9v0.1c-0.1,0.6-0.3,1.2-0.4,1.7l0,0l-0.2,0.8v0.1
	c-0.1,0.5-0.3,1.1-0.4,1.6l0,0l-0.2,0.7v0.1l-0.2,0.7c-0.8,3-1.5,5-2,5.5c-0.5,0.5-0.9,1.2-1.2,1.8l0,0l-0.1,0.2l-0.1,0.2l-0.1,0.2
	l-0.3,0.3l-0.1,0.2L443,602l-0.1,0.2v0.2l0,0.2v0.2c0,0.2,0,0.3-0.1,0.5v0.2v0.3v0.2v0.3v0.2v0.3v0.2v0.3v0.2c0,0.3,0,0.7,0,1
	c0,0.1,0,0.1,0,0.2s0,0.2,0,0.3s0,0.1,0,0.2s0,0.2,0,0.2s0,0.1,0,0.2s0,0.2,0,0.2v0.2c0,0.1,0,0.2,0,0.2v0.2c0,0.1,0,0.3,0,0.4v1.6
	v0.2v0.6l3,0.9c0,0,1.5,0.8,3.8,1.9c-0.3,10.1-1.3,23.8-3.8,32.1c-5.6,0.3-19.6,0.9-22.1-0.1c-3.2-1.3-23.5-4.4-17.1,10.1
	c2.7,6.1,8.4,10.7,14.3,14c-0.7,0.2-1.5,0.4-2.2,0.6c-5.2,1-6.6,2.7-6.4,4.5c-0.4,3,4.7,6.3,5.2,6.6c0.6,0.3,22.2,3.8,27.3,2.2
	s25.7-5.4,25.7-5.4s0-0.2,0-0.6l0,0c0,0-0.3-6.2-1.1-12.1c2.3-0.3,4.9-0.7,7.4-0.8c0.6,3,2.7,5.6,5.4,7c13.7,7,18.1-2.5,18.1-2.5
	s18.5,3.5,28.8,1c1.1,1,2,1.7,2.7,2.2c3.3,2.4,12.4,4.1,22.5,4.2c2.7,0.3,5.4,0.2,8.1-0.2c4.5-0.3,8.9-1,13.2-2.1
	c12.2-3.2,14.8-14.5,15.4-19.6c0.5-0.1,0.8-0.6,1-1.6c0.2-0.5,0.4-1.1,0.4-1.6c0.3-2.3,0.7-4.6,1.3-6.9l15,0.8
	c6.7,12.2,12.6,21.8,12.6,21.8l10.2-1.3c-4.5-3.6-8.5-7.9-11.8-12.7c-5.1-7.6-5.1-44-5.1-44l0.6-22.2v0.2v-1.1
	c0.9,6.6,8.4,25.6,9.2,25.9c0.6,0.2,1.2,0.4,1.8,0.5l0.5,1.4c4.2,11.2,15,40,15.8,44.5c1,5.7,40.7,7.9,49.5,5.1
	S658.4,653.9,658.4,653.9z M516.8,528l-14.5,21.8c-5.2-9-10.7-17.3-15.6-22.8C499.5,527.5,514.4,528,516.8,528z M514.5,472
	c1.1,0.5,2.5,0.4,3.5-0.4l1.2-1c1.3-1,1.7-2.8,0.8-4.3l0.7-0.7c5.1-0.9,10.2-2.1,15.1-3.7c0.2,4.5,1.5,8.9,3.7,12.8
	c0.4,2.5,1.3,4.9,2.4,7.2c-2.3-0.2-4.8-0.3-7.1-0.3c-2.1,0-4.1,0.1-6.2,0.4c-7.6,1.3-8.6,15.2-8.6,15.2s-15.3,5.4-24.5,5.6
	c-1.2,0-2.3-0.2-3.4-0.5l-0.9-0.1l1.2-3.4c0,0-0.5,0.2-1.4,0.3c0.3-0.4,0.6-0.9,0.9-1.3C497.9,489.5,508,478.8,514.5,472L514.5,472z
	 M483.1,641c-1.2,2-2.2,4.1-3.2,6.2c-3.6,0.7-8.5,1.1-11.1-1.1c-1.2-1-2.7-1.5-4.2-1.5l0.1-0.1c1.8-3.5,3.3-11.2,4.5-19.2
	c5.8,0,11.3-4.9,11.3-4.9l7.3,2.5l0.3,0.5l0.2,0.3l0.3,0.5l0.2,0.3l0.3,0.5l0.2,0.3l0.3,0.5l0.2,0.3l0.3,0.5l0.2,0.3l0.3,0.5
	l0.2,0.3l0.3,0.5l0.2,0.3l0.3,0.5l0.2,0.3l0.3,0.5l0.2,0.3l0.3,0.5l0.2,0.3l0.3,0.5l0.2,0.3l0.3,0.5l0.2,0.2l0.3,0.5l0.1,0.2
	c0.5,0.8,1,1.7,1.5,2.4l0.1,0.1l0.3,0.4l0.1,0.2l0.2,0.4l0.1,0.2l0.2,0.4l0.1,0.2l0.2,0.3l0.2,0.2l0.2,0.3l0.1,0.2l0.2,0.3l0.1,0.2
	l0.2,0.3l0.1,0.2l0.2,0.2l0.1,0.2l0,0C493.2,641.1,488.1,641.3,483.1,641z"/>
<path class="st19" d="M688.5,662.3c-8.7,2.8-47.4,0.6-48.3-5c-0.7-4.5-11.2-32.6-15.4-43.6l-1.7-4.4l20.1-4.3c0,0,0.7,3.5,1.8,8.6
	c1.9,9.2,4.7,23.3,5.7,30.2c1.6,10.5,5,8.7,5,8.7S697.2,659.5,688.5,662.3z"/>
<path class="st19" d="M579.2,479.5c0,0-1.6,9.3,11.8,18c13.3,8.7,1.9,39.9,1.9,39.9l-9.8,0.5c-13,0.7-24.2-9-25.5-21.9l0,0
	c0,0,5.6-9-4.7-32.2L579.2,479.5z"/>
<path class="st19" d="M521.6,468.1c0,0-19.2,18.7-28.1,31.6c-1.1,1.5-2,3-2.9,4.7c-6.5,12.4-21.6-7.8-16.4-14.7l3.6-3.4l34.8-32.4
	c0,0,23.8-18.6,35.9-5.3C560.6,461.9,521.6,468.1,521.6,468.1z"/>
<circle class="st20" cx="564.2" cy="463.3" r="27.9"/>
<path class="st21" d="M450.7,644.6c0,0-20.8,1.2-23.8,0s-22.9-4.3-16.7,9.9c6.2,14.2,29.7,20.1,29.7,20.1l17-4.3L450.7,644.6z"/>
<path class="st22" d="M450.7,644.6c0,0-20.8,1.2-23.8,0s-22.9-4.3-16.7,9.9c6.2,14.2,29.7,20.1,29.7,20.1l17-4.3L450.7,644.6z"/>
<path class="st21" d="M524.7,583.6l41.7,16.9l23.7,50.3c0,0,0.3,17.7-15.2,21.7s-37.2,2.2-42.7-1.9c-5.6-4-28.5-27.9-28.5-27.9
	L524.7,583.6z"/>
<path class="st22" d="M521.9,583.6l36.1,13.5l20.5,40.3c0,0,0.3,14.1-13.1,17.3s-32.2,1.7-37-1.5c-4.8-3.2-24.7-22.3-24.7-22.3
	L521.9,583.6z"/>
<path class="st19" d="M486,644.6c0,0-10.8,3.7-15.2,0s-12.1,0.9-12.1,0.9l3.4,20.1c0,0,15.5-3.4,23.8-2.5L486,644.6z"/>
<path class="st22" d="M486,644.6c0,0-10.8,3.7-15.2,0s-12.1,0.9-12.1,0.9l3.4,20.1c0,0,15.5-3.4,23.8-2.5L486,644.6z"/>
<path class="st23" d="M492.2,622.9l-9.9-3.4c0,0-10.8,9.6-18,1.5s6.5-41.5,6.5-41.5l14.5-23.5l10.5,33.1l9.6,16.1L492.2,622.9z"/>
<path class="st22" d="M492.2,622.9l-9.9-3.4c0,0-10.8,9.6-18,1.5s6.5-41.5,6.5-41.5l14.5-23.5l10.5,33.1l9.6,16.1L492.2,622.9z"/>
<polygon class="st23" points="586.6,621.1 608.9,624.2 613.3,644.6 585.7,643 "/>
<polygon class="st22" points="586.6,621.1 608.9,624.2 613.3,644.6 585.7,643 "/>
<path class="st24" d="M555.4,509c0,0,9.3,35.6,39,9.9l8.1,102.2c0,0-9.9,15.8-11.5,30s-28.5-44-44.6-44.3
	c-16.1-0.3-32.1-22.8-32.1-22.8l18.1-37.3L555.4,509z"/>
<path class="st25" d="M555.7,508c0,0,9.3,35.6,39,9.9l8,102.2c0,0-9.9,15.8-11.5,30s-28.5-44-44.6-44.3c-16.1-0.3-32-22.8-32-22.8
	l18.1-37.3L555.7,508z"/>
<path class="st24" d="M550.7,485.1c0,0-13-2.2-20.4-0.9c-7.4,1.2-8.4,14.9-8.4,14.9s-21.1,7.4-28.2,5c0,0-35-2.5-35,8
	c0,10.5,11.2,15.4,11.2,15.4s48.6,1.6,48.9,1.5c11.2-3.1-0.3,0-0.3,0l-20.1,30.3l18.6,25.7l19.8-14.5c0,0,2.5-13.6,9-20.4
	c4.6-4.9,10.7-26.8,13.8-38.9c1.3-5.2,0.5-10.6-2.2-15.2L550.7,485.1z"/>
<path class="st24" d="M493.5,499.7c-1.1,1.5-2,3-2.9,4.7c-6.5,12.4-21.6-7.8-16.4-14.7l3.6-3.4C476.5,502.2,489.5,500.5,493.5,499.7
	z"/>
<path class="st24" d="M518.5,527.9h-0.3C518.2,527.9,529.7,524.8,518.5,527.9z"/>
<path class="st26" d="M549.8,485.1c0,0-13-2.2-20.4-0.9c-7.4,1.2-8.4,14.9-8.4,14.9s-21.1,7.4-28.2,5l1.2-3.4c0,0-18.9,5.9-16.7-14
	c0,0-19.5,14.9-19.5,25.4c0,10.5,11.2,15.5,11.2,15.5s48.6,1.6,48.9,1.5c11.2-3.1-0.3,0-0.3,0l-20.1,30.3l18.6,25.7l19.8-14.5
	c0,0,2.5-13.6,9-20.4c4.6-4.9,10.7-26.8,13.8-38.9c1.3-5.2,0.5-10.6-2.2-15.2L549.8,485.1z"/>
<path class="st24" d="M613.6,585.8v1.7C613.4,586.9,613.4,586.3,613.6,585.8z"/>
<path class="st24" d="M645.1,613.5c-6.6,2-13.6,2.1-20.2,0.2l-1.7-4.4l20.1-4.3C643.3,605,644,608.5,645.1,613.5z"/>
<path class="st24" d="M584.8,492.9c0,0,17.3,10.8,23.5,12.4s22.3,7.1,22.3,7.1l6.5,22c0,0,2.5,16.7,0,26s-25.7,26.9-24.5,24.2
	L612,609c0,0,0,35.6,5,43s-9.4-7.3-9.4-7.3s-17.5-25.9-19.7-42.3c-2.2-16.4,1.2-79.5,1.2-79.5l-3.1-4.3
	C586.1,518.6,592.5,501.8,584.8,492.9z"/>
<path class="st26" d="M585.7,492.9c0,0,17.3,10.8,23.5,12.4s22.3,7.1,22.3,7.1l6.5,22c0,0,2.5,16.7,0,26s8.4,51.4,8.4,51.4
	s-10,4.6-23.8,0c-0.9-0.3-10.2-24.5-9-27.2l-0.6,24.5c0,0,0,35.6,5,43c3.2,4.7,7,8.8,11.5,12.4l-9.9,1.2c0,0-28.5-46.7-30.7-63.1
	c-2.2-16.4,1.2-79.6,1.2-79.6l-3.1-4.3C586.9,518.6,593.4,501.8,585.7,492.9z"/>
<path class="st21" d="M501.2,641.5c0,0-20.8-30-19.8-44c0,0-2.5,19.2-5.3,20.4s-30.7-7.4-30.7-7.4s-1.2-9,1.9-12.1S460,538,460,538
	s3.4-15.5,18.3-16.4s48.3,74.6,48.3,74.6S531.5,641.5,501.2,641.5z"/>
<path class="st19" d="M452.2,600.6c0,0,0.6,43.3-7.1,50.5s22.6,10.8,22.6,10.8s-5.3-10.5-0.9-18.9s7.1-42.4,7.1-42.4H452.2z"/>
<path class="st22" d="M453.8,650.5c0,0-3.1-7.7-11.5-1.5c0,0-7.4,17.3-20.4,19.8s-1.9,9.9-1.2,10.2s21.7,3.7,26.6,2.2
	s25.1-5.3,25.1-5.3s-0.9-20.4-4-22S466.8,663.2,453.8,650.5z"/>
<path class="st21" d="M453.8,651.1c0,0-3.1-7.7-11.5-1.5c0,0-7.4,17.3-20.4,19.8s-1.9,9.9-1.2,10.2s21.7,3.7,26.6,2.2
	s25.1-5.2,25.1-5.2s-0.9-20.4-4-22S466.8,663.8,453.8,651.1z"/>
<path class="st26" d="M512.1,456.5c2.6,4.1,5.4,8,8.4,11.8c1.2,1.4,1,3.4-0.4,4.6c0,0-0.1,0.1-0.1,0.1l-1.2,1
	c-1.4,1.1-3.5,0.9-4.6-0.6c0,0,0-0.1-0.1-0.1c-2.7-3.8-6.1-7-10-9.5c-1.5-1-2-3-1-4.5c0.2-0.3,0.5-0.6,0.7-0.8l3.5-2.7
	c1.4-1.1,3.5-0.9,4.6,0.5C512,456.4,512,456.4,512.1,456.5z"/>
<path class="st24" d="M582.8,490.5c-4-5.6-3.2-10.1-3.2-10.1l-26.3,4.4c1.8,4.1,3.3,8.3,4.5,12.6
	C566.7,500.1,576.4,497.4,582.8,490.5z"/>
<circle class="st19" cx="564.3" cy="472.7" r="24.8"/>
<path class="st24" d="M553.4,459.8c2.3-0.4,4.4-1.8,6.8-1.9c3-0.2,5.7,1.8,7.8,3.8s4.2,4.2,7.1,5.1c1.9,0.4,3.8,0.6,5.7,0.4
	c1.1,0.1,2.1-0.2,3-0.8c0.5-0.4,0.8-0.9,1-1.5c1.6-3.8,1.6-8-0.1-11.8c-0.2-0.4-0.3-0.8-0.3-1.3c0.1-0.3,0.2-0.5,0.4-0.7
	c2-2.4,4.1-4.7,4.9-7.6c0.8-2.9-0.2-6.4-3.1-7.7c-1.5-0.6-3.2-0.6-4.7,0c-1.4,0.6-2.5,1.8-4,2.1c-2.5,0.5-4.7-1.5-6.6-3
	c-3.1-2.3-6.7-3.6-10.5-3.9c-1.7-0.2-3.4,0-4.9,0.7c-1.5,0.8-2.8,1.8-4,3c-4.5,3.6-10.7,4.6-16.3,6.6c-1.1,0.4-2.3,0.9-2.5,2
	c-0.2,1.1,1,2.1,2.2,2.6c1.2,0.5,2.6,0.8,3.4,1.7c1,1.2,0.7,2.9,0.9,4.4c0.4,3,3,4.6,5.9,5.5C547.9,458.3,551.1,460.2,553.4,459.8z"
	/>
<path class="st20" d="M553.4,459.2c2.3-0.4,4.4-1.8,6.8-1.9c3-0.2,5.7,1.8,7.8,3.8s4.2,4.2,7.1,5.1c1.9,0.4,3.8,0.6,5.7,0.4
	c1.1,0.1,2.1-0.2,3-0.8c0.5-0.4,0.8-0.9,1-1.5c1.6-3.8,1.6-8-0.1-11.8c-0.2-0.4-0.3-0.8-0.3-1.3c0.1-0.3,0.2-0.5,0.4-0.7
	c2-2.4,4.1-4.7,4.9-7.6c0.8-2.9-0.2-6.4-3.1-7.7c-1.5-0.6-3.2-0.6-4.7,0c-1.4,0.6-2.5,1.8-4,2.1c-2.5,0.5-4.7-1.5-6.6-3
	c-3-2.2-6.6-3.6-10.4-3.8c-1.7-0.2-3.4,0-4.9,0.7c-1.5,0.8-2.8,1.8-4,3c-4.5,3.6-10.7,4.6-16.3,6.6c-1.1,0.4-2.3,0.9-2.5,2
	c-0.2,1.1,1,2.1,2.2,2.6c1.2,0.5,2.6,0.8,3.4,1.7c1,1.2,0.7,2.9,0.9,4.4c0.4,3,3,4.6,5.9,5.5C547.9,457.6,551.1,459.6,553.4,459.2z"
	/>
<path class="st22" d="M533.4,578.4c0,0,17.7,3,22.1,12.5c4.4,9.5,31,35.4,31,35.4"/>
<g class="st27">
	<path d="M476.7,615.8c-2.8,1.2-30.7-7.4-30.7-7.4c-0.3-2.7-0.3-5.4,0.1-8.1c-1.6,3.9-0.7,10.3-0.7,10.3s27.9,8.7,30.7,7.4
		c0.9-0.4,1.8-2.8,2.6-5.8C478.1,614.1,477.4,615.5,476.7,615.8z"/>
	<path d="M460.6,536.1c-0.2,0.6-0.4,1.3-0.6,1.9c0,0-6.7,40.1-10.7,55C453,581,460,539.7,460.6,536.1z"/>
	<path d="M501.8,639.3c0,0-20.8-30-19.8-44c0,0-0.2,1.7-0.6,4.2c0.9,14.6,19.8,42,19.8,42c14.4,0,20.9-10.2,23.7-21
		C521.8,630.4,515.2,639.3,501.8,639.3z"/>
</g>
<path class="st21" d="M448.3,611.4c0,0,18.9,10.4,25.7,5.5s2.5-12.7,2.5-12.7l-5.3-8.7h-17.7l-5.9,10.2L448.3,611.4z"/>
<path class="st21" d="M577.3,652.3c0,0,1.2-24.8-30.3-24.5s-1.2,0-1.2,0s-12.4-3.7-27.9,5c-15.5,8.7-33.1,6.8-33.1,6.8
	s-14.2,23.5-0.9,30.3s17.6-2.5,17.6-2.5s27.2,5.3,33.5-1.9c9,9,22.6,11.7,34.4,6.9C569.3,672.5,584.8,665.7,577.3,652.3z"/>
</svg>
