<?xml version="1.0" encoding="utf-8"?>
<!-- Generator: Adobe Illustrator 23.0.3, SVG Export Plug-In . SVG Version: 6.00 Build 0)  -->
<svg version="1.1" id="Layer_1" xmlns="http://www.w3.org/2000/svg" xmlns:xlink="http://www.w3.org/1999/xlink" x="0px" y="0px"
	 viewBox="0 0 3593.7 867" style="enable-background:new 0 0 3593.7 867;" xml:space="preserve">
<style type="text/css">
	.st0{fill:#FFFFFF;}
	.st1{enable-background:new;}
</style>
<g id="Group_1" transform="translate(-993.9 -345)">
	<g id="download" transform="translate(993.9 643.905)">
		<path id="Path_1" class="st0" d="M204.6,219.6c0-23.1-31-46-31-69h-9.5c-48.3,0-96.5-0.1-144.8,0.1c-6.5,0-10.3-2.1-12.9-7.8
			c-8-17.6-8.3-35.1-0.4-52.8c2.6-5.9,6.4-8.4,13.3-8.4c48.3,0.3,96.5,0.2,144.8,0.2h9.8V6.6c3.2-0.3,6-0.7,8.7-0.7
			c21.4,0,42.7-0.1,64.1,0.1C251,6,255.1,6.8,259,8.4C327.9,36.2,396.8,64.1,465.6,92c5.5,2.2,7.6,5.1,7.4,11
			c-0.4,15.5-0.1,31-0.1,46.7c1.5,0.3,3,0.5,4.6,0.7c20.3,0,445.8,2.1,466.1,2.3c4.4,0,6.4-1.1,7.4-5.8
			C969.2,59.3,1043,5.9,1126.3,0.5c20.9-1.4,41.6-0.2,62,4.8c38,9.5,68.2,30.2,89.8,62.9c30.5,46.3,35.1,98.3,33.3,152.6H1038
			c0.4,4,0.4,7,1,9.9c10.3,47.8,50,77.1,100.3,74.6c32.6-1.6,59.4-14.7,81.5-38.3c3-3.2,6-6.6,9.4-10.3c21.7,16.4,43,32.5,65,49.2
			c-49.2,59.9-112.5,80.4-186.6,69.9c-76.7-10.8-144.5-64-160.3-154.2c-23,0-451.3-2.1-475.6-2.1c0,10.6,0.1,21,0,31.4
			c-0.1,7.9,2.3,17.6-1.4,23.2c-3.7,5.5-13.5,7.1-20.7,10.1c-62.3,25.3-124.6,50.4-186.9,75.5c-4.9,1.9-10,2.9-15.3,3
			c-20.6,0.3-41.2,0.2-61.7,0.1c-14.4,0-12.8,1.7-12.9-12.5c0-18,0-35.9,0-53.8v-9.3h-10.3c-48,0-96-0.2-144,0.2
			c-7.3,0-11.1-2.6-13.8-8.8C-2,261-2,243.5,6.3,226c2.5-5.3,6-7.6,12.3-7.5c48.3,0.3,96.5,0.1,144.8,0.1
			C166.6,218.6,200.8,219.6,204.6,219.6z M1220.4,152.2c-0.4-22.3-6.3-42-21.7-58c-20.2-20.9-46-26.7-73.8-25.5
			c-43.8,1.9-73.4,26.4-84.4,68.8c-1.2,4.7-1.8,9.5-2.8,14.7L1220.4,152.2z"/>
	</g>
	<g class="st1">
		<path class="st0" d="M1732.5,562.9c104,0,156,60,156,132.5c0,52.6-29.1,105.8-98.4,124.4L1893.4,995h-100.3l-95.3-168.4H1657V995
			h-86.7V562.9H1732.5z M1729.4,634.7H1657v126.9h72.4c48.3,0,69.9-25.4,69.9-64.4C1799.4,658.9,1777.7,634.7,1729.4,634.7z"/>
		<path class="st0" d="M2531.4,667.5c85.4,0,143,44.6,161.6,121.3h-93.5c-9.9-29.1-32.8-47.7-68.7-47.7
			c-48.3,0-80.5,36.5-80.5,103.4s32.2,102.8,80.5,102.8c35.9,0,58.2-16.1,68.7-47h93.5c-18.6,73-76.1,121.3-161.6,121.3
			c-99,0-169.6-69.3-169.6-177C2361.8,736.8,2432.3,667.5,2531.4,667.5z"/>
		<path class="st0" d="M2756.7,557.9h86.7v157.8c22.3-29.1,60.7-47.7,106.5-47.7c77.4,0,133.7,52,133.7,146.7V1016h-86.7V826.6
			c0-55.1-30.3-84.8-76.1-84.8c-47,0-77.4,29.7-77.4,84.8V1016h-86.7V557.9z"/>
		<path class="st0" d="M3300.2,667.5c55.1,0,92.9,26,113.3,54.5v-48.9h87.3V1016h-87.3v-50.1c-20.4,29.7-59.4,55.7-113.9,55.7
			c-86.7,0-156-71.2-156-178.3C3143.5,736.2,3212.9,667.5,3300.2,667.5z M3322.4,743.6c-46.4,0-90.4,34.7-90.4,99.7
			s43.9,102.1,90.4,102.1c47.7,0,91-35.9,91-100.9C3413.4,779.5,3370.1,743.6,3322.4,743.6z"/>
		<path class="st0" d="M3672.2,1016h-86.7V673.1h86.7v53.2c21.7-35.3,57.6-58.2,105.2-58.2v91h-22.9c-51.4,0-82.3,19.8-82.3,86V1016
			z"/>
		<path class="st0" d="M3969.9,667.5c53.9,0,92.9,24.8,113.3,54.5v-48.9h87.3v345.4c0,92.9-56.9,166.5-169.6,166.5
			c-96.6,0-164-48.3-172.7-126.9h86c8.7,31,40.9,51.4,84.2,51.4c47.7,0,84.8-27.2,84.8-91v-53.2c-20.4,29.7-59.4,56.3-113.3,56.3
			c-87.3,0-156.6-71.2-156.6-178.3C3813.3,736.2,3882.6,667.5,3969.9,667.5z M3992.2,743.6c-46.4,0-90.4,34.7-90.4,99.7
			s43.9,102.1,90.4,102.1c47.7,0,91-35.9,91-100.9C4083.2,779.5,4039.9,743.6,3992.2,743.6z"/>
		<path class="st0" d="M4405.1,1021.6c-99.7,0-172.1-69.3-172.1-177c0-108.3,70.6-177,172.1-177c99,0,169,67.5,169,169.6
			c0,11.1-0.6,22.3-2.5,33.4h-250.7c4.3,50.8,39,79.2,82.3,79.2c37.1,0,57.6-18.6,68.7-41.5h93.5
			C4546.8,971.4,4489.9,1021.6,4405.1,1021.6z M4321.5,812.3h162.8c-1.2-45.2-37.1-73.7-81.7-73.7
			C4361.1,738.7,4328.3,765.3,4321.5,812.3z"/>
	</g>
</g>
</svg>
